<svg width="81" height="80" viewBox="0 0 81 80" fill="none" xmlns="http://www.w3.org/2000/svg">
<path d="M40.5 70C57.0685 70 70.5 56.5685 70.5 40C70.5 23.4315 57.0685 10 40.5 10C23.9315 10 10.5 23.4315 10.5 40C10.5 56.5685 23.9315 70 40.5 70Z" stroke="#8B8F96" stroke-width="3" stroke-miterlimit="10"/>
<path d="M29.25 37.5C31.3211 37.5 33 35.8211 33 33.75C33 31.6789 31.3211 30 29.25 30C27.1789 30 25.5 31.6789 25.5 33.75C25.5 35.8211 27.1789 37.5 29.25 37.5Z" fill="#8B8F96"/>
<path d="M51.75 37.5C53.8211 37.5 55.5 35.8211 55.5 33.75C55.5 31.6789 53.8211 30 51.75 30C49.6789 30 48 31.6789 48 33.75C48 35.8211 49.6789 37.5 51.75 37.5Z" fill="#8B8F96"/>
</svg>
