<svg width="81" height="80" viewBox="0 0 81 80" fill="none" xmlns="http://www.w3.org/2000/svg">
<path d="M56.75 12.5H65.5C66.163 12.5 66.7989 12.7634 67.2678 13.2322C67.7366 13.7011 68 14.337 68 15V23.75" stroke="#8B8F96" stroke-width="3" stroke-linecap="round" stroke-linejoin="round"/>
<path d="M56.75 67.5H65.5C66.163 67.5 66.7989 67.2366 67.2678 66.7678C67.7366 66.2989 68 65.663 68 65V56.25" stroke="#8B8F96" stroke-width="3" stroke-linecap="round" stroke-linejoin="round"/>
<path d="M24.25 67.5H15.5C14.837 67.5 14.2011 67.2366 13.7322 66.7678C13.2634 66.2989 13 65.663 13 65V56.25" stroke="#8B8F96" stroke-width="3" stroke-linecap="round" stroke-linejoin="round"/>
<path d="M24.25 12.5H15.5C14.837 12.5 14.2011 12.7634 13.7322 13.2322C13.2634 13.7011 13 14.337 13 15V23.75" stroke="#8B8F96" stroke-width="3" stroke-linecap="round" stroke-linejoin="round"/>
<path d="M40.5 45C46.0228 45 50.5 40.5228 50.5 35C50.5 29.4772 46.0228 25 40.5 25C34.9772 25 30.5 29.4772 30.5 35C30.5 40.5228 34.9772 45 40.5 45Z" stroke="#8B8F96" stroke-width="3" stroke-linecap="round" stroke-linejoin="round"/>
<path d="M23.9062 55C25.5043 51.9854 27.8935 49.4632 30.817 47.7041C33.7405 45.945 37.088 45.0155 40.5 45.0155C43.912 45.0155 47.2595 45.945 50.183 47.7041C53.1065 49.4632 55.4957 51.9854 57.0938 55" stroke="#8B8F96" stroke-width="3" stroke-linecap="round" stroke-linejoin="round"/>
</svg>
