<svg width="17" height="16" viewBox="0 0 17 16" fill="#8B8F96" xmlns="http://www.w3.org/2000/svg">
<path d="M13.9624 5.80625C13.9241 5.71525 13.8598 5.63761 13.7775 5.58311C13.6952 5.52861 13.5986 5.49969 13.4999 5.5H3.49985C3.40114 5.49969 3.30455 5.52861 3.22224 5.58311C3.13994 5.63761 3.0756 5.71525 3.03735 5.80625C3.00133 5.89861 2.99219 5.99927 3.011 6.09661C3.0298 6.19394 3.07577 6.28396 3.1436 6.35625L8.1436 11.3563C8.23917 11.4487 8.36691 11.5003 8.49985 11.5003C8.63279 11.5003 8.76053 11.4487 8.8561 11.3563L13.8561 6.35625C13.9239 6.28396 13.9699 6.19394 13.9887 6.09661C14.0075 5.99927 13.9984 5.89861 13.9624 5.80625Z" fill="#8B8F96"/>
</svg>
